0.06m3min_grf.mot
version=1
nRows=22
nColumns 19
inDegrees=yes
endheader
time	1_ground_force_vx	1_ground_force_vy	1_ground_force_vz	1_ground_force_px	1_ground_force_py	1_ground_force_pz	1_ground_torque_x	1_ground_torque_y	1_ground_torque_z	2_ground_force_vx	2_ground_force_vy	2_ground_force_vz	2_ground_force_px	2_ground_force_py	2_ground_force_pz	2_ground_torque_x	2_ground_torque_y	2_ground_torque_z
            0.005000	            4.545343	          125.493516	           -5.939079	           -0.218145	            0.006402	           -0.446380	            0.003052	            0.084276	           -0.003988	            5.298640	          129.449972	            8.061814	           -0.239247	            0.005625	           -0.699110	           -0.012633	           -0.308636	           -0.019221
            0.005500	            4.409021	          123.869525	           -5.578847	           -0.217903	            0.006392	           -0.444111	           -0.003083	           -0.086613	            0.003901	            4.701993	          125.950788	            7.533380	           -0.239026	            0.005623	           -0.698325	           -0.009126	           -0.244467	           -0.014622
            0.006000	            4.272734	          120.803803	           -5.316511	           -0.217598	            0.006396	           -0.444955	           -0.006709	           -0.189679	            0.008348	            4.899300	          123.189750	            7.382660	           -0.239198	            0.005624	           -0.698787	           -0.008011	           -0.201432	           -0.012072
            0.006500	            4.228068	          118.098629	           -5.052856	           -0.217905	            0.006398	           -0.445561	           -0.008447	           -0.235947	            0.010095	            4.624724	          121.348256	            7.094641	           -0.238222	            0.005627	           -0.698748	           -0.007358	           -0.193073	           -0.011288
            0.007000	            4.411023	          115.396252	           -5.431753	           -0.218377	            0.006393	           -0.444412	           -0.002336	           -0.061116	            0.002877	            4.635879	          118.218898	            6.754974	           -0.238990	            0.005626	           -0.699173	           -0.010195	           -0.259989	           -0.014856
            0.007500	            4.319309	          113.053567	           -5.624998	           -0.217550	            0.006387	           -0.442894	            0.001396	            0.036539	           -0.001818	            4.364646	          115.456503	            6.510597	           -0.239616	            0.005625	           -0.699390	           -0.012018	           -0.317911	           -0.017927
            0.008000	            4.228524	          109.988443	           -5.500343	           -0.218302	            0.006396	           -0.444971	            0.004538	            0.118043	           -0.005903	            4.138454	          113.245208	            6.690524	           -0.237909	            0.005630	           -0.699264	           -0.012565	           -0.343840	           -0.020314
            0.008500	            3.909516	          107.101771	           -4.961643	           -0.218058	            0.006394	           -0.444461	            0.001593	            0.043647	           -0.002022	            4.056512	          109.931874	            6.209456	           -0.238089	            0.005623	           -0.697262	           -0.012493	           -0.338563	           -0.019124
            0.009000	            3.635632	          105.658020	           -4.600296	           -0.218400	            0.006385	           -0.442521	           -0.005370	           -0.156066	            0.006795	            4.020796	          106.802514	            5.822881	           -0.238309	            0.005619	           -0.696573	           -0.009379	           -0.249142	           -0.013583
            0.009500	            3.545335	          102.411844	           -4.292991	           -0.218206	            0.006391	           -0.443975	           -0.010163	           -0.293572	            0.012306	            4.074230	          104.961702	            5.675506	           -0.238627	            0.005622	           -0.697724	           -0.007185	           -0.185108	           -0.010009
            0.010000	            3.454014	           99.167437	           -4.398388	           -0.217533	            0.006397	           -0.445252	           -0.007938	           -0.227903	            0.010108	            3.991082	          102.015660	            5.477321	           -0.237859	            0.005624	           -0.697323	           -0.009570	           -0.244616	           -0.013134
            0.010500	            3.408434	           97.725303	           -4.404458	           -0.217828	            0.006386	           -0.442635	           -0.003679	           -0.105491	            0.004754	            3.952749	           99.622575	            5.187230	           -0.237767	            0.005619	           -0.695969	           -0.012979	           -0.327120	           -0.017033
            0.011000	            3.271743	           93.759235	           -4.375266	           -0.218176	            0.006400	           -0.445898	            0.000393	            0.011264	           -0.000526	            3.771934	           97.780917	            5.039955	           -0.238048	            0.005621	           -0.696846	           -0.014057	           -0.364404	           -0.018783
            0.011500	            3.042776	           91.776465	           -4.429056	           -0.217347	            0.006393	           -0.444326	           -0.000473	           -0.014260	            0.000688	            3.311410	           95.569445	            5.032270	           -0.237809	            0.005625	           -0.697776	           -0.010904	           -0.314688	           -0.016570
            0.012000	            3.181677	           89.251199	           -4.073371	           -0.217453	            0.006394	           -0.444452	           -0.000326	           -0.009156	            0.000418	            3.320633	           92.992038	            4.835359	           -0.238170	            0.005620	           -0.696636	           -0.011069	           -0.309987	           -0.016119
            0.012500	            2.632786	           86.906263	           -3.761063	           -0.218046	            0.006390	           -0.443637	           -0.006350	           -0.209597	            0.009071	            3.285602	           89.678371	            4.495055	           -0.237153	            0.005619	           -0.695329	           -0.010029	           -0.273736	           -0.013721
            0.013000	            2.450459	           84.922125	           -3.493975	           -0.218711	            0.006388	           -0.443289	           -0.009008	           -0.312172	            0.012844	            3.102649	           88.390322	            4.021254	           -0.238115	            0.005621	           -0.696898	           -0.007891	           -0.224810	           -0.010228
            0.013500	            2.359380	           82.217926	           -3.459486	           -0.218494	            0.006394	           -0.444652	           -0.008304	           -0.289361	            0.012175	            3.154795	           86.917472	            3.969049	           -0.237744	            0.005627	           -0.698292	           -0.010902	           -0.300372	           -0.013716
            0.014000	            2.314241	           80.234405	           -3.330307	           -0.217580	            0.006385	           -0.442423	           -0.003717	           -0.128879	            0.005349	            2.792665	           83.416973	            4.050581	           -0.237759	            0.005616	           -0.695063	           -0.008711	           -0.260188	           -0.012634
            0.014500	            2.588962	           77.712115	           -3.662803	           -0.218484	            0.006386	           -0.442805	            0.002335	            0.070076	           -0.003303	            2.754353	           81.023705	            3.807419	           -0.237898	            0.005620	           -0.696328	           -0.010715	           -0.315208	           -0.014812
            0.015000	            2.635608	           75.187814	           -3.536170	           -0.218147	            0.006392	           -0.443993	            0.005488	            0.156566	           -0.007363	            2.576840	           78.261481	            3.609930	           -0.237598	            0.005612	           -0.693893	           -0.011560	           -0.351089	           -0.016195
            0.015500	            2.178354	           72.482561	           -3.271492	           -0.216711	            0.006394	           -0.444516	           -0.002337	           -0.077748	            0.003509	            2.489019	           76.604637	            3.369416	           -0.236484	            0.005620	           -0.694800	           -0.011976	           -0.368596	           -0.016212
